<svg xmlns="http://www.w3.org/2000/svg" width="115.747" height="79.932" viewBox="0 0 115.747 79.932">
  <g id="Grupo_28" data-name="Grupo 28" transform="translate(-1529 -450.012)">
    <ellipse id="Elipse_14" data-name="Elipse 14" cx="21.982" cy="20.544" rx="21.982" ry="20.544" transform="translate(1529 466.062)" fill="#494656"/>
    <ellipse id="Elipse_15" data-name="Elipse 15" cx="21.982" cy="20.544" rx="21.982" ry="20.544" transform="translate(1545.143 457.074)" fill="#494656"/>
    <circle id="Elipse_16" data-name="Elipse 16" cx="21.982" cy="21.982" r="21.982" transform="translate(1564.72 460.655)" fill="#494656"/>
    <ellipse id="Elipse_17" data-name="Elipse 17" cx="21.982" cy="20.544" rx="21.982" ry="20.544" transform="translate(1569.872 450.012)" fill="#494656"/>
    <ellipse id="Elipse_18" data-name="Elipse 18" cx="21.982" cy="20.544" rx="21.982" ry="20.544" transform="translate(1591.854 460.926)" fill="#494656"/>
    <ellipse id="Elipse_19" data-name="Elipse 19" cx="21.982" cy="20.544" rx="21.982" ry="20.544" transform="translate(1600.784 472.803)" fill="#494656"/>
    <circle id="Elipse_20" data-name="Elipse 20" cx="21.982" cy="21.982" r="21.982" transform="translate(1572.963 469.929)" fill="#494656"/>
    <ellipse id="Elipse_21" data-name="Elipse 21" cx="21.982" cy="20.544" rx="21.982" ry="20.544" transform="translate(1545.143 472.803)" fill="#494656"/>
    <path id="Caminho_59" data-name="Caminho 59" d="M3664.886-638.354,3640.5-662.74l8.93-4.122,10.647,2.061,3.778-8.93L3648.743-688.5" transform="translate(-2055 1165.47)" fill="none" stroke="#fd0" stroke-width="8"/>
    <path id="Caminho_60" data-name="Caminho 60" d="M3623.881-674.4l12.418,10.283-9.856,8.838,6.866,14.39" transform="translate(-2067.788 1159.988)" fill="none" stroke="#fd0" stroke-width="8"/>
  </g>
</svg>
